<svg xmlns="http://www.w3.org/2000/svg" width="600" height="400"><path d="M307,208L267,184L271,215Z" fill="rgb(252,249,100)" stroke="rgb(252,249,100)" stroke-width="1.51"/><path d="M307,208L328,162L267,184Z" fill="rgb(253,248,99)" stroke="rgb(253,248,99)" stroke-width="1.51"/><path d="M328,162L280,130L267,184Z" fill="rgb(254,236,93)" stroke="rgb(254,236,93)" stroke-width="1.51"/><path d="M267,184L203,243L271,215Z" fill="rgb(249,241,93)" stroke="rgb(249,241,93)" stroke-width="1.51"/><path d="M280,130L228,141L267,184Z" fill="rgb(255,224,86)" stroke="rgb(255,224,86)" stroke-width="1.51"/><path d="M228,141L214,157L267,184Z" fill="rgb(255,222,85)" stroke="rgb(255,222,85)" stroke-width="1.51"/><path d="M328,162L305,116L280,130Z" fill="rgb(253,229,89)" stroke="rgb(253,229,89)" stroke-width="1.51"/><path d="M280,130L233,60L228,141Z" fill="rgb(255,205,76)" stroke="rgb(255,205,76)" stroke-width="1.51"/><path d="M307,208L375,180L328,162Z" fill="rgb(245,248,96)" stroke="rgb(245,248,96)" stroke-width="1.51"/><path d="M271,215L342,265L307,208Z" fill="rgb(240,255,99)" stroke="rgb(240,255,99)" stroke-width="1.51"/><path d="M342,265L375,180L307,208Z" fill="rgb(235,255,97)" stroke="rgb(235,255,97)" stroke-width="1.51"/><path d="M328,162L377,118L305,116Z" fill="rgb(246,228,85)" stroke="rgb(246,228,85)" stroke-width="1.51"/><path d="M271,215L259,291L342,265Z" fill="rgb(231,252,93)" stroke="rgb(231,252,93)" stroke-width="1.51"/><path d="M203,243L213,256L271,215Z" fill="rgb(240,236,87)" stroke="rgb(240,236,87)" stroke-width="1.51"/><path d="M214,157L203,243L267,184Z" fill="rgb(254,233,92)" stroke="rgb(254,233,92)" stroke-width="1.51"/><path d="M213,256L259,291L271,215Z" fill="rgb(234,241,88)" stroke="rgb(234,241,88)" stroke-width="1.51"/><path d="M214,157L160,196L203,243Z" fill="rgb(254,226,87)" stroke="rgb(254,226,87)" stroke-width="1.51"/><path d="M228,141L192,138L214,157Z" fill="rgb(255,210,79)" stroke="rgb(255,210,79)" stroke-width="1.51"/><path d="M233,60L192,138L228,141Z" fill="rgb(255,198,73)" stroke="rgb(255,198,73)" stroke-width="1.51"/><path d="M259,291L305,323L342,265Z" fill="rgb(216,255,89)" stroke="rgb(216,255,89)" stroke-width="1.51"/><path d="M236,335L260,312L259,291Z" fill="rgb(212,243,79)" stroke="rgb(212,243,79)" stroke-width="1.51"/><path d="M342,265L396,245L375,180Z" fill="rgb(223,255,92)" stroke="rgb(223,255,92)" stroke-width="1.51"/><path d="M305,323L368,284L342,265Z" fill="rgb(207,255,86)" stroke="rgb(207,255,86)" stroke-width="1.51"/><path d="M368,284L396,245L342,265Z" fill="rgb(210,255,87)" stroke="rgb(210,255,87)" stroke-width="1.51"/><path d="M305,116L284,77L280,130Z" fill="rgb(255,215,82)" stroke="rgb(255,215,82)" stroke-width="1.51"/><path d="M340,53L284,77L305,116Z" fill="rgb(254,208,77)" stroke="rgb(254,208,77)" stroke-width="1.51"/><path d="M375,180L377,118L328,162Z" fill="rgb(240,236,87)" stroke="rgb(240,236,87)" stroke-width="1.51"/><path d="M425,121L377,118L375,180Z" fill="rgb(232,232,81)" stroke="rgb(232,232,81)" stroke-width="1.51"/><path d="M192,138L160,196L214,157Z" fill="rgb(255,211,79)" stroke="rgb(255,211,79)" stroke-width="1.51"/><path d="M203,243L167,254L213,256Z" fill="rgb(237,228,80)" stroke="rgb(237,228,80)" stroke-width="1.51"/><path d="M213,256L236,335L259,291Z" fill="rgb(220,239,80)" stroke="rgb(220,239,80)" stroke-width="1.51"/><path d="M260,312L305,323L259,291Z" fill="rgb(212,249,84)" stroke="rgb(212,249,84)" stroke-width="1.51"/><path d="M154,203L167,254L203,243Z" fill="rgb(243,222,80)" stroke="rgb(243,222,80)" stroke-width="1.51"/><path d="M160,196L154,203L203,243Z" fill="rgb(250,221,83)" stroke="rgb(250,221,83)" stroke-width="1.51"/><path d="M127,167L154,203L160,196Z" fill="rgb(255,209,79)" stroke="rgb(255,209,79)" stroke-width="1.51"/><path d="M396,245L421,244L375,180Z" fill="rgb(219,255,90)" stroke="rgb(219,255,90)" stroke-width="1.51"/><path d="M424,258L421,244L396,245Z" fill="rgb(204,255,85)" stroke="rgb(204,255,85)" stroke-width="1.51"/><path d="M260,312L292,369L305,323Z" fill="rgb(201,252,81)" stroke="rgb(201,252,81)" stroke-width="1.51"/><path d="M159,329L236,335L213,256Z" fill="rgb(216,231,73)" stroke="rgb(216,231,73)" stroke-width="1.51"/><path d="M284,77L233,60L280,130Z" fill="rgb(255,201,75)" stroke="rgb(255,201,75)" stroke-width="1.51"/><path d="M192,138L127,167L160,196Z" fill="rgb(255,204,76)" stroke="rgb(255,204,76)" stroke-width="1.51"/><path d="M368,284L424,258L396,245Z" fill="rgb(203,255,85)" stroke="rgb(203,255,85)" stroke-width="1.51"/><path d="M433,333L424,258L368,284Z" fill="rgb(188,255,79)" stroke="rgb(188,255,79)" stroke-width="1.51"/><path d="M365,63L340,53L305,116Z" fill="rgb(248,207,73)" stroke="rgb(248,207,73)" stroke-width="1.51"/><path d="M284,77L294,34L233,60Z" fill="rgb(255,190,69)" stroke="rgb(255,190,69)" stroke-width="1.51"/><path d="M421,244L439,178L375,180Z" fill="rgb(224,255,92)" stroke="rgb(224,255,92)" stroke-width="1.51"/><path d="M377,118L365,63L305,116Z" fill="rgb(244,215,77)" stroke="rgb(244,215,77)" stroke-width="1.51"/><path d="M477,243L439,178L421,244Z" fill="rgb(206,255,86)" stroke="rgb(206,255,86)" stroke-width="1.51"/><path d="M426,80L365,63L377,118Z" fill="rgb(236,211,70)" stroke="rgb(236,211,70)" stroke-width="1.51"/><path d="M439,178L425,121L375,180Z" fill="rgb(226,239,84)" stroke="rgb(226,239,84)" stroke-width="1.51"/><path d="M384,23L327,43L340,53Z" fill="rgb(248,192,64)" stroke="rgb(248,192,64)" stroke-width="1.51"/><path d="M340,53L327,43L284,77Z" fill="rgb(254,198,71)" stroke="rgb(254,198,71)" stroke-width="1.51"/><path d="M113,125L127,167L192,138Z" fill="rgb(255,191,69)" stroke="rgb(255,191,69)" stroke-width="1.51"/><path d="M108,218L146,294L167,254Z" fill="rgb(237,213,72)" stroke="rgb(237,213,72)" stroke-width="1.51"/><path d="M327,43L294,34L284,77Z" fill="rgb(255,195,72)" stroke="rgb(255,195,72)" stroke-width="1.51"/><path d="M305,323L361,345L368,284Z" fill="rgb(195,255,81)" stroke="rgb(195,255,81)" stroke-width="1.51"/><path d="M346,362L361,345L305,323Z" fill="rgb(185,255,78)" stroke="rgb(185,255,78)" stroke-width="1.51"/><path d="M233,60L173,75L192,138Z" fill="rgb(255,184,66)" stroke="rgb(255,184,66)" stroke-width="1.51"/><path d="M209,35L173,75L233,60Z" fill="rgb(255,172,60)" stroke="rgb(255,172,60)" stroke-width="1.51"/><path d="M167,254L146,294L213,256Z" fill="rgb(231,223,75)" stroke="rgb(231,223,75)" stroke-width="1.51"/><path d="M108,218L167,254L154,203Z" fill="rgb(247,214,77)" stroke="rgb(247,214,77)" stroke-width="1.51"/><path d="M236,335L292,369L260,312Z" fill="rgb(201,246,77)" stroke="rgb(201,246,77)" stroke-width="1.51"/><path d="M215,370L292,369L236,335Z" fill="rgb(194,243,71)" stroke="rgb(194,243,71)" stroke-width="1.51"/><path d="M292,369L346,362L305,323Z" fill="rgb(189,255,79)" stroke="rgb(189,255,79)" stroke-width="1.51"/><path d="M127,167L108,218L154,203Z" fill="rgb(255,208,78)" stroke="rgb(255,208,78)" stroke-width="1.51"/><path d="M294,34L209,35L233,60Z" fill="rgb(255,177,62)" stroke="rgb(255,177,62)" stroke-width="1.51"/><path d="M425,121L426,80L377,118Z" fill="rgb(230,219,72)" stroke="rgb(230,219,72)" stroke-width="1.51"/><path d="M365,63L384,23L340,53Z" fill="rgb(244,195,64)" stroke="rgb(244,195,64)" stroke-width="1.51"/><path d="M461,125L426,80L425,121Z" fill="rgb(223,220,70)" stroke="rgb(223,220,70)" stroke-width="1.51"/><path d="M146,294L159,329L213,256Z" fill="rgb(222,223,71)" stroke="rgb(222,223,71)" stroke-width="1.51"/><path d="M136,365L159,329L104,333Z" fill="rgb(207,214,57)" stroke="rgb(207,214,57)" stroke-width="1.51"/><path d="M159,329L215,370L236,335Z" fill="rgb(202,231,67)" stroke="rgb(202,231,67)" stroke-width="1.51"/><path d="M173,75L113,125L192,138Z" fill="rgb(255,183,65)" stroke="rgb(255,183,65)" stroke-width="1.51"/><path d="M127,167L70,194L108,218Z" fill="rgb(255,199,73)" stroke="rgb(255,199,73)" stroke-width="1.51"/><path d="M116,93L113,125L173,75Z" fill="rgb(255,170,58)" stroke="rgb(255,170,58)" stroke-width="1.51"/><path d="M488,192L461,125L439,178Z" fill="rgb(214,242,79)" stroke="rgb(214,242,79)" stroke-width="1.51"/><path d="M439,178L461,125L425,121Z" fill="rgb(220,233,76)" stroke="rgb(220,233,76)" stroke-width="1.51"/><path d="M424,258L477,243L421,244Z" fill="rgb(197,255,82)" stroke="rgb(197,255,82)" stroke-width="1.51"/><path d="M470,292L477,243L424,258Z" fill="rgb(185,255,78)" stroke="rgb(185,255,78)" stroke-width="1.51"/><path d="M433,333L368,284L361,345Z" fill="rgb(181,255,76)" stroke="rgb(181,255,76)" stroke-width="1.51"/><path d="M96,85L116,93L116,17Z" fill="rgb(255,149,48)" stroke="rgb(255,149,48)" stroke-width="1.51"/><path d="M327,43L334,-4L294,34Z" fill="rgb(255,185,64)" stroke="rgb(255,185,64)" stroke-width="1.51"/><path d="M294,34L285,-13L209,35Z" fill="rgb(255,172,60)" stroke="rgb(255,172,60)" stroke-width="1.51"/><path d="M426,80L384,23L365,63Z" fill="rgb(237,199,63)" stroke="rgb(237,199,63)" stroke-width="1.51"/><path d="M403,4L384,23L426,80Z" fill="rgb(236,191,57)" stroke="rgb(236,191,57)" stroke-width="1.51"/><path d="M389,379L433,333L361,345Z" fill="rgb(164,255,70)" stroke="rgb(164,255,70)" stroke-width="1.51"/><path d="M477,243L488,192L439,178Z" fill="rgb(207,255,86)" stroke="rgb(207,255,86)" stroke-width="1.51"/><path d="M433,333L470,292L424,258Z" fill="rgb(177,255,74)" stroke="rgb(177,255,74)" stroke-width="1.51"/><path d="M521,218L505,176L488,192Z" fill="rgb(200,254,82)" stroke="rgb(200,254,82)" stroke-width="1.51"/><path d="M384,23L334,-4L327,43Z" fill="rgb(249,184,61)" stroke="rgb(249,184,61)" stroke-width="1.51"/><path d="M346,362L389,379L361,345Z" fill="rgb(169,255,72)" stroke="rgb(169,255,72)" stroke-width="1.51"/><path d="M356,426L389,379L346,362Z" fill="rgb(157,255,67)" stroke="rgb(157,255,67)" stroke-width="1.51"/><path d="M356,426L346,362L292,369Z" fill="rgb(168,255,71)" stroke="rgb(168,255,71)" stroke-width="1.51"/><path d="M116,93L93,115L113,125Z" fill="rgb(255,168,58)" stroke="rgb(255,168,58)" stroke-width="1.51"/><path d="M113,125L70,194L127,167Z" fill="rgb(255,187,68)" stroke="rgb(255,187,68)" stroke-width="1.51"/><path d="M334,-4L285,-13L294,34Z" fill="rgb(255,177,62)" stroke="rgb(255,177,62)" stroke-width="1.51"/><path d="M116,17L116,93L173,75Z" fill="rgb(255,154,51)" stroke="rgb(255,154,51)" stroke-width="1.51"/><path d="M93,115L70,194L113,125Z" fill="rgb(255,177,62)" stroke="rgb(255,177,62)" stroke-width="1.51"/><path d="M108,218L78,261L146,294Z" fill="rgb(237,206,68)" stroke="rgb(237,206,68)" stroke-width="1.51"/><path d="M57,234L78,261L108,218Z" fill="rgb(245,198,66)" stroke="rgb(245,198,66)" stroke-width="1.51"/><path d="M389,379L406,380L433,333Z" fill="rgb(154,255,66)" stroke="rgb(154,255,66)" stroke-width="1.51"/><path d="M433,333L495,319L470,292Z" fill="rgb(160,255,69)" stroke="rgb(160,255,69)" stroke-width="1.51"/><path d="M422,432L406,380L389,379Z" fill="rgb(138,255,61)" stroke="rgb(138,255,61)" stroke-width="1.51"/><path d="M488,192L505,176L461,125Z" fill="rgb(208,242,77)" stroke="rgb(208,242,77)" stroke-width="1.51"/><path d="M481,15L403,4L426,80Z" fill="rgb(229,191,53)" stroke="rgb(229,191,53)" stroke-width="1.51"/><path d="M521,218L488,192L477,243Z" fill="rgb(194,255,81)" stroke="rgb(194,255,81)" stroke-width="1.51"/><path d="M8,161L20,206L70,194Z" fill="rgb(255,178,63)" stroke="rgb(255,178,63)" stroke-width="1.51"/><path d="M116,93L96,85L93,115Z" fill="rgb(255,160,54)" stroke="rgb(255,160,54)" stroke-width="1.51"/><path d="M161,5L173,75L209,35Z" fill="rgb(255,157,53)" stroke="rgb(255,157,53)" stroke-width="1.51"/><path d="M159,329L157,385L215,370Z" fill="rgb(197,225,60)" stroke="rgb(197,225,60)" stroke-width="1.51"/><path d="M104,333L159,329L146,294Z" fill="rgb(215,214,61)" stroke="rgb(215,214,61)" stroke-width="1.51"/><path d="M311,-65L254,-64L285,-13Z" fill="rgb(255,170,59)" stroke="rgb(255,170,59)" stroke-width="1.51"/><path d="M384,23L386,-20L334,-4Z" fill="rgb(246,177,54)" stroke="rgb(246,177,54)" stroke-width="1.51"/><path d="M476,67L426,80L461,125Z" fill="rgb(221,214,64)" stroke="rgb(221,214,64)" stroke-width="1.51"/><path d="M78,261L104,333L146,294Z" fill="rgb(224,207,61)" stroke="rgb(224,207,61)" stroke-width="1.51"/><path d="M215,370L266,436L292,369Z" fill="rgb(180,245,68)" stroke="rgb(180,245,68)" stroke-width="1.51"/><path d="M136,365L157,385L159,329Z" fill="rgb(199,219,56)" stroke="rgb(199,219,56)" stroke-width="1.51"/><path d="M233,-41L184,-7L209,35Z" fill="rgb(255,149,49)" stroke="rgb(255,149,49)" stroke-width="1.51"/><path d="M184,-7L161,5L209,35Z" fill="rgb(255,147,48)" stroke="rgb(255,147,48)" stroke-width="1.51"/><path d="M526,120L476,67L461,125Z" fill="rgb(211,219,63)" stroke="rgb(211,219,63)" stroke-width="1.51"/><path d="M78,261L56,308L104,333Z" fill="rgb(224,199,56)" stroke="rgb(224,199,56)" stroke-width="1.51"/><path d="M70,194L57,234L108,218Z" fill="rgb(253,197,70)" stroke="rgb(253,197,70)" stroke-width="1.51"/><path d="M44,266L57,234L20,206Z" fill="rgb(248,187,61)" stroke="rgb(248,187,61)" stroke-width="1.51"/><path d="M157,385L220,423L215,370Z" fill="rgb(183,230,58)" stroke="rgb(183,230,58)" stroke-width="1.51"/><path d="M534,272L521,218L477,243Z" fill="rgb(178,255,75)" stroke="rgb(178,255,75)" stroke-width="1.51"/><path d="M505,176L526,120L461,125Z" fill="rgb(207,233,71)" stroke="rgb(207,233,71)" stroke-width="1.51"/><path d="M403,4L386,-20L384,23Z" fill="rgb(241,178,52)" stroke="rgb(241,178,52)" stroke-width="1.51"/><path d="M285,-13L233,-41L209,35Z" fill="rgb(255,159,54)" stroke="rgb(255,159,54)" stroke-width="1.51"/><path d="M427,-24L386,-20L403,4Z" fill="rgb(238,178,50)" stroke="rgb(238,178,50)" stroke-width="1.51"/><path d="M311,444L356,426L292,369Z" fill="rgb(165,255,70)" stroke="rgb(165,255,70)" stroke-width="1.51"/><path d="M220,423L266,436L215,370Z" fill="rgb(178,239,62)" stroke="rgb(178,239,62)" stroke-width="1.51"/><path d="M470,292L534,272L477,243Z" fill="rgb(172,255,73)" stroke="rgb(172,255,73)" stroke-width="1.51"/><path d="M507,331L495,319L484,374Z" fill="rgb(136,255,60)" stroke="rgb(136,255,60)" stroke-width="1.51"/><path d="M495,319L433,333L484,374Z" fill="rgb(145,255,63)" stroke="rgb(145,255,63)" stroke-width="1.51"/><path d="M90,-18L116,17L107,-38Z" fill="rgb(255,118,35)" stroke="rgb(255,118,35)" stroke-width="1.51"/><path d="M254,-64L233,-41L285,-13Z" fill="rgb(255,163,55)" stroke="rgb(255,163,55)" stroke-width="1.51"/><path d="M141,-66L161,5L184,-7Z" fill="rgb(255,135,43)" stroke="rgb(255,135,43)" stroke-width="1.51"/><path d="M161,5L116,17L173,75Z" fill="rgb(255,146,47)" stroke="rgb(255,146,47)" stroke-width="1.51"/><path d="M266,436L311,444L292,369Z" fill="rgb(173,254,71)" stroke="rgb(173,254,71)" stroke-width="1.51"/><path d="M57,234L44,266L78,261Z" fill="rgb(241,193,61)" stroke="rgb(241,193,61)" stroke-width="1.51"/><path d="M20,206L57,234L70,194Z" fill="rgb(255,188,66)" stroke="rgb(255,188,66)" stroke-width="1.51"/><path d="M578,162L526,120L505,176Z" fill="rgb(195,238,69)" stroke="rgb(195,238,69)" stroke-width="1.51"/><path d="M118,411L163,429L157,385Z" fill="rgb(185,218,48)" stroke="rgb(185,218,48)" stroke-width="1.51"/><path d="M118,411L157,385L136,365Z" fill="rgb(190,215,49)" stroke="rgb(190,215,49)" stroke-width="1.51"/><path d="M44,266L56,308L78,261Z" fill="rgb(233,193,57)" stroke="rgb(233,193,57)" stroke-width="1.51"/><path d="M495,319L534,272L470,292Z" fill="rgb(159,255,68)" stroke="rgb(159,255,68)" stroke-width="1.51"/><path d="M484,374L433,333L406,380Z" fill="rgb(144,255,63)" stroke="rgb(144,255,63)" stroke-width="1.51"/><path d="M521,218L578,162L505,176Z" fill="rgb(193,250,76)" stroke="rgb(193,250,76)" stroke-width="1.51"/><path d="M507,331L534,272L495,319Z" fill="rgb(148,255,64)" stroke="rgb(148,255,64)" stroke-width="1.51"/><path d="M311,-65L285,-13L334,-4Z" fill="rgb(255,175,60)" stroke="rgb(255,175,60)" stroke-width="1.51"/><path d="M481,15L427,-24L403,4Z" fill="rgb(231,179,46)" stroke="rgb(231,179,46)" stroke-width="1.51"/><path d="M481,15L426,80L476,67Z" fill="rgb(222,200,55)" stroke="rgb(222,200,55)" stroke-width="1.51"/><path d="M239,489L268,484L266,436Z" fill="rgb(176,246,66)" stroke="rgb(176,246,66)" stroke-width="1.51"/><path d="M315,489L369,459L311,444Z" fill="rgb(161,255,69)" stroke="rgb(161,255,69)" stroke-width="1.51"/><path d="M157,385L163,429L220,423Z" fill="rgb(182,226,54)" stroke="rgb(182,226,54)" stroke-width="1.51"/><path d="M118,411L136,365L60,392Z" fill="rgb(192,207,43)" stroke="rgb(192,207,43)" stroke-width="1.51"/><path d="M311,-65L334,-4L362,-82Z" fill="rgb(253,176,57)" stroke="rgb(253,176,57)" stroke-width="1.51"/><path d="M233,-41L188,-65L184,-7Z" fill="rgb(255,147,48)" stroke="rgb(255,147,48)" stroke-width="1.51"/><path d="M362,-82L334,-4L386,-20Z" fill="rgb(247,177,55)" stroke="rgb(247,177,55)" stroke-width="1.51"/><path d="M422,432L484,374L406,380Z" fill="rgb(128,255,57)" stroke="rgb(128,255,57)" stroke-width="1.51"/><path d="M-14,332L41,334L56,308Z" fill="rgb(219,187,44)" stroke="rgb(219,187,44)" stroke-width="1.51"/><path d="M24,136L70,194L93,115Z" fill="rgb(255,171,59)" stroke="rgb(255,171,59)" stroke-width="1.51"/><path d="M24,136L93,115L10,74Z" fill="rgb(255,148,48)" stroke="rgb(255,148,48)" stroke-width="1.51"/><path d="M516,35L481,15L476,67Z" fill="rgb(216,194,48)" stroke="rgb(216,194,48)" stroke-width="1.51"/><path d="M573,77L525,74L526,120Z" fill="rgb(200,215,54)" stroke="rgb(200,215,54)" stroke-width="1.51"/><path d="M526,120L525,74L476,67Z" fill="rgb(208,213,57)" stroke="rgb(208,213,57)" stroke-width="1.51"/><path d="M116,17L79,26L96,85Z" fill="rgb(255,135,42)" stroke="rgb(255,135,42)" stroke-width="1.51"/><path d="M90,-18L79,26L116,17Z" fill="rgb(255,118,35)" stroke="rgb(255,118,35)" stroke-width="1.51"/><path d="M10,74L93,115L96,85Z" fill="rgb(255,147,48)" stroke="rgb(255,147,48)" stroke-width="1.51"/><path d="M356,426L422,432L389,379Z" fill="rgb(143,255,62)" stroke="rgb(143,255,62)" stroke-width="1.51"/><path d="M369,459L422,432L356,426Z" fill="rgb(145,255,63)" stroke="rgb(145,255,63)" stroke-width="1.51"/><path d="M60,392L136,365L104,333Z" fill="rgb(201,206,48)" stroke="rgb(201,206,48)" stroke-width="1.51"/><path d="M268,484L311,444L266,436Z" fill="rgb(174,251,70)" stroke="rgb(174,251,70)" stroke-width="1.51"/><path d="M311,444L369,459L356,426Z" fill="rgb(157,255,67)" stroke="rgb(157,255,67)" stroke-width="1.51"/><path d="M221,-97L188,-65L233,-41Z" fill="rgb(255,151,50)" stroke="rgb(255,151,50)" stroke-width="1.51"/><path d="M221,-97L233,-41L254,-64Z" fill="rgb(255,157,53)" stroke="rgb(255,157,53)" stroke-width="1.51"/><path d="M516,35L481,-4L481,15Z" fill="rgb(218,186,43)" stroke="rgb(218,186,43)" stroke-width="1.51"/><path d="M481,15L481,-4L427,-24Z" fill="rgb(225,179,43)" stroke="rgb(225,179,43)" stroke-width="1.51"/><path d="M24,136L8,161L70,194Z" fill="rgb(255,169,58)" stroke="rgb(255,169,58)" stroke-width="1.51"/><path d="M-26,132L8,161L24,136Z" fill="rgb(255,151,50)" stroke="rgb(255,151,50)" stroke-width="1.51"/><path d="M56,308L41,334L104,333Z" fill="rgb(216,197,50)" stroke="rgb(216,197,50)" stroke-width="1.51"/><path d="M-14,332L56,308L44,266Z" fill="rgb(227,186,48)" stroke="rgb(227,186,48)" stroke-width="1.51"/><path d="M-17,264L44,266L20,206Z" fill="rgb(246,181,56)" stroke="rgb(246,181,56)" stroke-width="1.51"/><path d="M525,74L516,35L476,67Z" fill="rgb(211,202,51)" stroke="rgb(211,202,51)" stroke-width="1.51"/><path d="M427,-24L415,-59L386,-20Z" fill="rgb(237,178,49)" stroke="rgb(237,178,49)" stroke-width="1.51"/><path d="M456,-72L415,-59L427,-24Z" fill="rgb(232,178,46)" stroke="rgb(232,178,46)" stroke-width="1.51"/><path d="M239,489L266,436L220,423Z" fill="rgb(177,242,63)" stroke="rgb(177,242,63)" stroke-width="1.51"/><path d="M239,489L220,423L158,486Z" fill="rgb(180,233,58)" stroke="rgb(180,233,58)" stroke-width="1.51"/><path d="M415,-59L362,-82L386,-20Z" fill="rgb(242,177,52)" stroke="rgb(242,177,52)" stroke-width="1.51"/><path d="M311,-65L221,-97L254,-64Z" fill="rgb(255,164,56)" stroke="rgb(255,164,56)" stroke-width="1.51"/><path d="M79,26L10,74L96,85Z" fill="rgb(255,133,42)" stroke="rgb(255,133,42)" stroke-width="1.51"/><path d="M107,-38L116,17L161,5Z" fill="rgb(255,125,38)" stroke="rgb(255,125,38)" stroke-width="1.51"/><path d="M268,484L315,489L311,444Z" fill="rgb(172,255,72)" stroke="rgb(172,255,72)" stroke-width="1.51"/><path d="M458,455L489,413L422,432Z" fill="rgb(118,255,54)" stroke="rgb(118,255,54)" stroke-width="1.51"/><path d="M589,213L578,162L521,218Z" fill="rgb(183,255,76)" stroke="rgb(183,255,76)" stroke-width="1.51"/><path d="M525,74L560,37L516,35Z" fill="rgb(206,199,45)" stroke="rgb(206,199,45)" stroke-width="1.51"/><path d="M578,162L577,146L526,120Z" fill="rgb(190,235,64)" stroke="rgb(190,235,64)" stroke-width="1.51"/><path d="M268,484L239,489L315,489Z" fill="rgb(175,249,69)" stroke="rgb(175,249,69)" stroke-width="1.51"/><path d="M158,486L220,423L163,429Z" fill="rgb(182,226,54)" stroke="rgb(182,226,54)" stroke-width="1.51"/><path d="M141,-66L107,-38L161,5Z" fill="rgb(255,128,39)" stroke="rgb(255,128,39)" stroke-width="1.51"/><path d="M484,374L544,387L507,331Z" fill="rgb(116,255,54)" stroke="rgb(116,255,54)" stroke-width="1.51"/><path d="M604,204L589,213L664,233Z" fill="rgb(164,255,70)" stroke="rgb(164,255,70)" stroke-width="1.51"/><path d="M534,272L589,213L521,218Z" fill="rgb(171,255,72)" stroke="rgb(171,255,72)" stroke-width="1.51"/><path d="M422,432L489,413L484,374Z" fill="rgb(114,255,53)" stroke="rgb(114,255,53)" stroke-width="1.51"/><path d="M422,470L422,432L369,459Z" fill="rgb(137,255,60)" stroke="rgb(137,255,60)" stroke-width="1.51"/><path d="M104,491L158,486L163,429Z" fill="rgb(185,217,48)" stroke="rgb(185,217,48)" stroke-width="1.51"/><path d="M41,334L60,392L104,333Z" fill="rgb(207,198,44)" stroke="rgb(207,198,44)" stroke-width="1.51"/><path d="M188,-65L141,-66L184,-7Z" fill="rgb(255,138,44)" stroke="rgb(255,138,44)" stroke-width="1.51"/><path d="M221,-97L141,-66L188,-65Z" fill="rgb(255,142,45)" stroke="rgb(255,142,45)" stroke-width="1.51"/><path d="M362,-82L221,-97L311,-65Z" fill="rgb(255,174,61)" stroke="rgb(255,174,61)" stroke-width="1.51"/><path d="M42,8L79,26L90,-18Z" fill="rgb(255,109,32)" stroke="rgb(255,109,32)" stroke-width="1.51"/><path d="M42,8L10,74L79,26Z" fill="rgb(255,115,35)" stroke="rgb(255,115,35)" stroke-width="1.51"/><path d="M589,213L534,272L593,290Z" fill="rgb(153,255,66)" stroke="rgb(153,255,66)" stroke-width="1.51"/><path d="M578,162L608,142L577,146Z" fill="rgb(182,237,63)" stroke="rgb(182,237,63)" stroke-width="1.51"/><path d="M8,161L-18,185L20,206Z" fill="rgb(255,169,58)" stroke="rgb(255,169,58)" stroke-width="1.51"/><path d="M41,334L8,372L60,392Z" fill="rgb(205,191,37)" stroke="rgb(205,191,37)" stroke-width="1.51"/><path d="M-26,132L-18,185L8,161Z" fill="rgb(255,158,53)" stroke="rgb(255,158,53)" stroke-width="1.51"/><path d="M315,489L422,470L369,459Z" fill="rgb(150,255,65)" stroke="rgb(150,255,65)" stroke-width="1.51"/><path d="M-22,30L42,8L-18,-22Z" fill="rgb(255,84,23)" stroke="rgb(255,84,23)" stroke-width="1.51"/><path d="M45,-61L42,8L90,-18Z" fill="rgb(255,102,29)" stroke="rgb(255,102,29)" stroke-width="1.51"/><path d="M-18,185L-22,220L20,206Z" fill="rgb(255,175,61)" stroke="rgb(255,175,61)" stroke-width="1.51"/><path d="M422,470L458,455L422,432Z" fill="rgb(126,255,57)" stroke="rgb(126,255,57)" stroke-width="1.51"/><path d="M-22,220L-17,264L20,206Z" fill="rgb(251,176,56)" stroke="rgb(251,176,56)" stroke-width="1.51"/><path d="M608,142L573,77L577,146Z" fill="rgb(185,227,56)" stroke="rgb(185,227,56)" stroke-width="1.51"/><path d="M577,146L573,77L526,120Z" fill="rgb(193,224,57)" stroke="rgb(193,224,57)" stroke-width="1.51"/><path d="M516,35L535,-25L481,-4Z" fill="rgb(215,181,37)" stroke="rgb(215,181,37)" stroke-width="1.51"/><path d="M104,491L163,429L118,411Z" fill="rgb(186,214,45)" stroke="rgb(186,214,45)" stroke-width="1.51"/><path d="M573,77L560,37L525,74Z" fill="rgb(200,205,46)" stroke="rgb(200,205,46)" stroke-width="1.51"/><path d="M481,-4L456,-72L427,-24Z" fill="rgb(228,179,44)" stroke="rgb(228,179,44)" stroke-width="1.51"/><path d="M589,213L604,204L578,162Z" fill="rgb(176,253,72)" stroke="rgb(176,253,72)" stroke-width="1.51"/><path d="M593,290L534,272L584,335Z" fill="rgb(132,255,59)" stroke="rgb(132,255,59)" stroke-width="1.51"/><path d="M505,-57L456,-72L481,-4Z" fill="rgb(222,180,40)" stroke="rgb(222,180,40)" stroke-width="1.51"/><path d="M415,-59L456,-72L362,-82Z" fill="rgb(237,178,49)" stroke="rgb(237,178,49)" stroke-width="1.51"/><path d="M-86,181L-77,232L-22,220Z" fill="rgb(255,175,59)" stroke="rgb(255,175,59)" stroke-width="1.51"/><path d="M10,74L-26,132L24,136Z" fill="rgb(255,139,44)" stroke="rgb(255,139,44)" stroke-width="1.51"/><path d="M-20,64L-26,132L10,74Z" fill="rgb(255,127,39)" stroke="rgb(255,127,39)" stroke-width="1.51"/><path d="M489,413L544,387L484,374Z" fill="rgb(101,255,49)" stroke="rgb(101,255,49)" stroke-width="1.51"/><path d="M525,427L544,387L489,413Z" fill="rgb(87,255,45)" stroke="rgb(87,255,45)" stroke-width="1.51"/><path d="M584,335L534,272L507,331Z" fill="rgb(135,255,59)" stroke="rgb(135,255,59)" stroke-width="1.51"/><path d="M60,392L79,444L118,411Z" fill="rgb(189,203,38)" stroke="rgb(189,203,38)" stroke-width="1.51"/><path d="M5,420L79,444L60,392Z" fill="rgb(192,194,31)" stroke="rgb(192,194,31)" stroke-width="1.51"/><path d="M604,204L608,142L578,162Z" fill="rgb(177,245,66)" stroke="rgb(177,245,66)" stroke-width="1.51"/><path d="M573,77L634,28L560,37Z" fill="rgb(193,199,37)" stroke="rgb(193,199,37)" stroke-width="1.51"/><path d="M544,387L564,369L507,331Z" fill="rgb(106,255,51)" stroke="rgb(106,255,51)" stroke-width="1.51"/><path d="M564,369L584,335L507,331Z" fill="rgb(112,255,52)" stroke="rgb(112,255,52)" stroke-width="1.51"/><path d="M-14,332L8,372L41,334Z" fill="rgb(213,184,37)" stroke="rgb(213,184,37)" stroke-width="1.51"/><path d="M-54,309L-14,332L-17,264Z" fill="rgb(228,179,44)" stroke="rgb(228,179,44)" stroke-width="1.51"/><path d="M-17,264L-14,332L44,266Z" fill="rgb(232,180,47)" stroke="rgb(232,180,47)" stroke-width="1.51"/><path d="M458,455L525,427L489,413Z" fill="rgb(102,255,49)" stroke="rgb(102,255,49)" stroke-width="1.51"/><path d="M574,440L616,376L564,369Z" fill="rgb(45,254,36)" stroke="rgb(45,254,36)" stroke-width="1.51"/><path d="M560,37L535,-25L516,35Z" fill="rgb(209,187,36)" stroke="rgb(209,187,36)" stroke-width="1.51"/><path d="M569,-19L535,-25L560,37Z" fill="rgb(206,182,29)" stroke="rgb(206,182,29)" stroke-width="1.51"/><path d="M-22,30L-20,64L10,74Z" fill="rgb(255,111,33)" stroke="rgb(255,111,33)" stroke-width="1.51"/><path d="M535,-25L505,-57L481,-4Z" fill="rgb(216,180,37)" stroke="rgb(216,180,37)" stroke-width="1.51"/><path d="M656,112L622,89L608,142Z" fill="rgb(183,224,52)" stroke="rgb(183,224,52)" stroke-width="1.51"/><path d="M593,290L615,295L589,213Z" fill="rgb(140,255,61)" stroke="rgb(140,255,61)" stroke-width="1.51"/><path d="M584,335L615,295L593,290Z" fill="rgb(117,255,53)" stroke="rgb(117,255,53)" stroke-width="1.51"/><path d="M645,313L615,295L584,335Z" fill="rgb(111,255,52)" stroke="rgb(111,255,52)" stroke-width="1.51"/><path d="M616,376L584,335L564,369Z" fill="rgb(83,255,44)" stroke="rgb(83,255,44)" stroke-width="1.51"/><path d="M158,486L104,491L239,489Z" fill="rgb(183,223,52)" stroke="rgb(183,223,52)" stroke-width="1.51"/><path d="M239,489L42,495L315,489Z" fill="rgb(180,231,56)" stroke="rgb(180,231,56)" stroke-width="1.51"/><path d="M79,444L104,491L118,411Z" fill="rgb(188,207,41)" stroke="rgb(188,207,41)" stroke-width="1.51"/><path d="M71,488L104,491L79,444Z" fill="rgb(189,203,38)" stroke="rgb(189,203,38)" stroke-width="1.51"/><path d="M42,8L-22,30L10,74Z" fill="rgb(255,105,30)" stroke="rgb(255,105,30)" stroke-width="1.51"/><path d="M-86,181L-18,185L-26,132Z" fill="rgb(255,160,54)" stroke="rgb(255,160,54)" stroke-width="1.51"/><path d="M45,-61L90,-18L107,-38Z" fill="rgb(255,110,32)" stroke="rgb(255,110,32)" stroke-width="1.51"/><path d="M608,142L622,89L573,77Z" fill="rgb(184,220,49)" stroke="rgb(184,220,49)" stroke-width="1.51"/><path d="M643,185L608,142L604,204Z" fill="rgb(176,247,67)" stroke="rgb(176,247,67)" stroke-width="1.51"/><path d="M73,-95L107,-38L141,-66Z" fill="rgb(255,118,36)" stroke="rgb(255,118,36)" stroke-width="1.51"/><path d="M73,-95L45,-61L107,-38Z" fill="rgb(255,108,31)" stroke="rgb(255,108,31)" stroke-width="1.51"/><path d="M535,-25L576,-70L505,-57Z" fill="rgb(209,181,32)" stroke="rgb(209,181,32)" stroke-width="1.51"/><path d="M634,28L569,-19L560,37Z" fill="rgb(197,188,29)" stroke="rgb(197,188,29)" stroke-width="1.51"/><path d="M45,-61L14,-33L42,8Z" fill="rgb(255,93,26)" stroke="rgb(255,93,26)" stroke-width="1.51"/><path d="M664,233L643,185L604,204Z" fill="rgb(168,255,71)" stroke="rgb(168,255,71)" stroke-width="1.51"/><path d="M-80,265L-54,309L-17,264Z" fill="rgb(235,178,48)" stroke="rgb(235,178,48)" stroke-width="1.51"/><path d="M-18,389L5,420L8,372Z" fill="rgb(198,182,23)" stroke="rgb(198,182,23)" stroke-width="1.51"/><path d="M8,372L5,420L60,392Z" fill="rgb(196,188,28)" stroke="rgb(196,188,28)" stroke-width="1.51"/><path d="M-77,232L-17,264L-22,220Z" fill="rgb(248,177,55)" stroke="rgb(248,177,55)" stroke-width="1.51"/><path d="M-22,220L-18,185L-86,181Z" fill="rgb(255,172,60)" stroke="rgb(255,172,60)" stroke-width="1.51"/><path d="M-18,389L8,372L-14,332Z" fill="rgb(208,182,31)" stroke="rgb(208,182,31)" stroke-width="1.51"/><path d="M-70,378L-18,389L-14,332Z" fill="rgb(207,182,30)" stroke="rgb(207,182,30)" stroke-width="1.51"/><path d="M42,495L71,488L79,444Z" fill="rgb(191,198,34)" stroke="rgb(191,198,34)" stroke-width="1.51"/><path d="M221,-97L73,-95L141,-66Z" fill="rgb(255,130,41)" stroke="rgb(255,130,41)" stroke-width="1.51"/><path d="M-34,-77L-18,-22L14,-33Z" fill="rgb(254,80,22)" stroke="rgb(254,80,22)" stroke-width="1.51"/><path d="M-79,64L-26,132L-20,64Z" fill="rgb(255,125,39)" stroke="rgb(255,125,39)" stroke-width="1.51"/><path d="M-22,30L-54,46L-20,64Z" fill="rgb(255,106,31)" stroke="rgb(255,106,31)" stroke-width="1.51"/><path d="M-72,-22L-54,46L-22,30Z" fill="rgb(255,90,25)" stroke="rgb(255,90,25)" stroke-width="1.51"/><path d="M-77,232L-80,265L-17,264Z" fill="rgb(243,177,52)" stroke="rgb(243,177,52)" stroke-width="1.51"/><path d="M-56,417L-27,444L-18,389Z" fill="rgb(196,183,21)" stroke="rgb(196,183,21)" stroke-width="1.51"/><path d="M-84,141L-86,181L-26,132Z" fill="rgb(255,154,51)" stroke="rgb(255,154,51)" stroke-width="1.51"/><path d="M-77,232L-86,181L-80,265Z" fill="rgb(252,176,57)" stroke="rgb(252,176,57)" stroke-width="1.51"/><path d="M574,440L564,369L544,387Z" fill="rgb(62,255,39)" stroke="rgb(62,255,39)" stroke-width="1.51"/><path d="M458,455L525,485L525,427Z" fill="rgb(96,255,47)" stroke="rgb(96,255,47)" stroke-width="1.51"/><path d="M422,470L525,485L458,455Z" fill="rgb(112,255,52)" stroke="rgb(112,255,52)" stroke-width="1.51"/><path d="M315,489L525,485L422,470Z" fill="rgb(131,255,58)" stroke="rgb(131,255,58)" stroke-width="1.51"/><path d="M-79,64L-84,141L-26,132Z" fill="rgb(255,138,44)" stroke="rgb(255,138,44)" stroke-width="1.51"/><path d="M-72,-22L-18,-22L-34,-77Z" fill="rgb(254,80,22)" stroke="rgb(254,80,22)" stroke-width="1.51"/><path d="M14,-33L-18,-22L42,8Z" fill="rgb(255,85,23)" stroke="rgb(255,85,23)" stroke-width="1.51"/><path d="M574,440L544,387L525,427Z" fill="rgb(70,255,40)" stroke="rgb(70,255,40)" stroke-width="1.51"/><path d="M615,295L664,233L589,213Z" fill="rgb(149,255,64)" stroke="rgb(149,255,64)" stroke-width="1.51"/><path d="M525,485L574,440L525,427Z" fill="rgb(75,255,41)" stroke="rgb(75,255,41)" stroke-width="1.51"/><path d="M616,376L645,313L584,335Z" fill="rgb(92,255,46)" stroke="rgb(92,255,46)" stroke-width="1.51"/><path d="M645,313L664,233L615,295Z" fill="rgb(131,255,58)" stroke="rgb(131,255,58)" stroke-width="1.51"/><path d="M643,185L656,112L608,142Z" fill="rgb(179,236,60)" stroke="rgb(179,236,60)" stroke-width="1.51"/><path d="M686,175L656,112L643,185Z" fill="rgb(178,240,63)" stroke="rgb(178,240,63)" stroke-width="1.51"/><path d="M622,89L634,28L573,77Z" fill="rgb(188,206,40)" stroke="rgb(188,206,40)" stroke-width="1.51"/><path d="M5,420L42,495L79,444Z" fill="rgb(193,193,30)" stroke="rgb(193,193,30)" stroke-width="1.51"/><path d="M71,488L42,495L104,491Z" fill="rgb(190,200,35)" stroke="rgb(190,200,35)" stroke-width="1.51"/><path d="M104,491L42,495L239,489Z" fill="rgb(186,214,45)" stroke="rgb(186,214,45)" stroke-width="1.51"/><path d="M315,489L636,493L525,485Z" fill="rgb(101,255,49)" stroke="rgb(101,255,49)" stroke-width="1.51"/><path d="M-23,473L42,495L5,420Z" fill="rgb(196,184,23)" stroke="rgb(196,184,23)" stroke-width="1.51"/><path d="M688,81L634,28L622,89Z" fill="rgb(188,206,40)" stroke="rgb(188,206,40)" stroke-width="1.51"/><path d="M-72,-22L-79,64L-54,46Z" fill="rgb(255,97,27)" stroke="rgb(255,97,27)" stroke-width="1.51"/><path d="M-54,46L-79,64L-20,64Z" fill="rgb(255,112,33)" stroke="rgb(255,112,33)" stroke-width="1.51"/><path d="M627,-68L576,-70L569,-19Z" fill="rgb(198,182,23)" stroke="rgb(198,182,23)" stroke-width="1.51"/><path d="M569,-19L576,-70L535,-25Z" fill="rgb(205,182,29)" stroke="rgb(205,182,29)" stroke-width="1.51"/><path d="M505,-57L576,-70L456,-72Z" fill="rgb(215,181,36)" stroke="rgb(215,181,36)" stroke-width="1.51"/><path d="M456,-72L683,-87L362,-82Z" fill="rgb(218,180,38)" stroke="rgb(218,180,38)" stroke-width="1.51"/><path d="M362,-82L683,-87L221,-97Z" fill="rgb(234,178,48)" stroke="rgb(234,178,48)" stroke-width="1.51"/><path d="M688,389L658,330L616,376Z" fill="rgb(70,255,40)" stroke="rgb(70,255,40)" stroke-width="1.51"/><path d="M616,376L658,330L645,313Z" fill="rgb(93,255,47)" stroke="rgb(93,255,47)" stroke-width="1.51"/><path d="M645,313L687,292L664,233Z" fill="rgb(132,255,58)" stroke="rgb(132,255,58)" stroke-width="1.51"/><path d="M-18,389L-27,444L5,420Z" fill="rgb(196,183,21)" stroke="rgb(196,183,21)" stroke-width="1.51"/><path d="M-70,378L-14,332L-54,309Z" fill="rgb(216,181,37)" stroke="rgb(216,181,37)" stroke-width="1.51"/><path d="M-80,265L-70,378L-54,309Z" fill="rgb(223,180,41)" stroke="rgb(223,180,41)" stroke-width="1.51"/><path d="M695,21L646,-4L634,28Z" fill="rgb(194,188,26)" stroke="rgb(194,188,26)" stroke-width="1.51"/><path d="M664,233L686,175L643,185Z" fill="rgb(172,255,72)" stroke="rgb(172,255,72)" stroke-width="1.51"/><path d="M687,292L686,175L664,233Z" fill="rgb(156,255,67)" stroke="rgb(156,255,67)" stroke-width="1.51"/><path d="M-70,378L-56,417L-18,389Z" fill="rgb(197,182,23)" stroke="rgb(197,182,23)" stroke-width="1.51"/><path d="M574,440L632,424L616,376Z" fill="rgb(1,254,31)" stroke="rgb(1,254,31)" stroke-width="1.51"/><path d="M525,485L592,470L574,440Z" fill="rgb(58,255,38)" stroke="rgb(58,255,38)" stroke-width="1.51"/><path d="M658,330L687,292L645,313Z" fill="rgb(113,255,53)" stroke="rgb(113,255,53)" stroke-width="1.51"/><path d="M688,389L687,292L658,330Z" fill="rgb(95,255,47)" stroke="rgb(95,255,47)" stroke-width="1.51"/><path d="M634,28L646,-4L569,-19Z" fill="rgb(195,183,22)" stroke="rgb(195,183,22)" stroke-width="1.51"/><path d="M688,81L622,89L656,112Z" fill="rgb(185,217,48)" stroke="rgb(185,217,48)" stroke-width="1.51"/><path d="M592,470L632,424L574,440Z" fill="rgb(3,254,31)" stroke="rgb(3,254,31)" stroke-width="1.51"/><path d="M-56,469L-23,473L-27,444Z" fill="rgb(196,183,21)" stroke="rgb(196,183,21)" stroke-width="1.51"/><path d="M-27,444L-23,473L5,420Z" fill="rgb(196,183,21)" stroke="rgb(196,183,21)" stroke-width="1.51"/><path d="M686,175L688,81L656,112Z" fill="rgb(182,227,54)" stroke="rgb(182,227,54)" stroke-width="1.51"/><path d="M695,21L688,81L686,175Z" fill="rgb(185,216,47)" stroke="rgb(185,216,47)" stroke-width="1.51"/><path d="M-18,-22L-72,-22L-22,30Z" fill="rgb(254,80,22)" stroke="rgb(254,80,22)" stroke-width="1.51"/><path d="M-34,-77L14,-33L45,-61Z" fill="rgb(255,84,23)" stroke="rgb(255,84,23)" stroke-width="1.51"/><path d="M73,-95L-34,-77L45,-61Z" fill="rgb(255,91,25)" stroke="rgb(255,91,25)" stroke-width="1.51"/><path d="M646,-4L627,-68L569,-19Z" fill="rgb(196,183,21)" stroke="rgb(196,183,21)" stroke-width="1.51"/><path d="M576,-70L683,-87L456,-72Z" fill="rgb(202,182,26)" stroke="rgb(202,182,26)" stroke-width="1.51"/><path d="M684,-35L627,-68L646,-4Z" fill="rgb(196,183,21)" stroke="rgb(196,183,21)" stroke-width="1.51"/><path d="M-56,417L-56,469L-27,444Z" fill="rgb(196,183,21)" stroke="rgb(196,183,21)" stroke-width="1.51"/><path d="M-23,473L-56,469L42,495Z" fill="rgb(196,183,21)" stroke="rgb(196,183,21)" stroke-width="1.51"/><path d="M-70,378L-56,469L-56,417Z" fill="rgb(196,183,21)" stroke="rgb(196,183,21)" stroke-width="1.51"/><path d="M687,292L695,21L686,175Z" fill="rgb(177,242,64)" stroke="rgb(177,242,64)" stroke-width="1.51"/><path d="M688,81L695,21L634,28Z" fill="rgb(191,198,35)" stroke="rgb(191,198,35)" stroke-width="1.51"/><path d="M686,442L688,389L632,424Z" fill="rgb(1,254,31)" stroke="rgb(1,254,31)" stroke-width="1.51"/><path d="M632,424L688,389L616,376Z" fill="rgb(19,254,32)" stroke="rgb(19,254,32)" stroke-width="1.51"/><path d="M687,292L695,453L695,21Z" fill="rgb(145,255,63)" stroke="rgb(145,255,63)" stroke-width="1.51"/><path d="M592,470L636,493L632,424Z" fill="rgb(1,254,31)" stroke="rgb(1,254,31)" stroke-width="1.51"/><path d="M525,485L636,493L592,470Z" fill="rgb(37,254,34)" stroke="rgb(37,254,34)" stroke-width="1.51"/><path d="M42,495L636,493L315,489Z" fill="rgb(162,255,69)" stroke="rgb(162,255,69)" stroke-width="1.51"/><path d="M695,21L684,-35L646,-4Z" fill="rgb(196,183,21)" stroke="rgb(196,183,21)" stroke-width="1.51"/><path d="M636,493L686,442L632,424Z" fill="rgb(1,254,31)" stroke="rgb(1,254,31)" stroke-width="1.51"/><path d="M-34,-77L-94,-94L-72,-22Z" fill="rgb(254,80,22)" stroke="rgb(254,80,22)" stroke-width="1.51"/><path d="M-72,-22L-94,-94L-79,64Z" fill="rgb(254,80,22)" stroke="rgb(254,80,22)" stroke-width="1.51"/><path d="M-79,64L-94,-94L-84,141Z" fill="rgb(255,101,29)" stroke="rgb(255,101,29)" stroke-width="1.51"/><path d="M-84,141L-94,-94L-86,181Z" fill="rgb(255,120,36)" stroke="rgb(255,120,36)" stroke-width="1.51"/><path d="M73,-95L-94,-94L-34,-77Z" fill="rgb(254,80,22)" stroke="rgb(254,80,22)" stroke-width="1.51"/><path d="M221,-97L-94,-94L73,-95Z" fill="rgb(255,105,30)" stroke="rgb(255,105,30)" stroke-width="1.51"/><path d="M636,493L695,453L686,442Z" fill="rgb(1,254,31)" stroke="rgb(1,254,31)" stroke-width="1.51"/><path d="M686,442L695,453L688,389Z" fill="rgb(1,254,31)" stroke="rgb(1,254,31)" stroke-width="1.51"/><path d="M688,389L695,453L687,292Z" fill="rgb(55,255,37)" stroke="rgb(55,255,37)" stroke-width="1.51"/><path d="M695,21L683,-87L684,-35Z" fill="rgb(196,183,21)" stroke="rgb(196,183,21)" stroke-width="1.51"/><path d="M684,-35L683,-87L627,-68Z" fill="rgb(196,183,21)" stroke="rgb(196,183,21)" stroke-width="1.51"/><path d="M627,-68L683,-87L576,-70Z" fill="rgb(196,183,21)" stroke="rgb(196,183,21)" stroke-width="1.51"/></svg>